<svg width="42" height="31" viewBox="0 0 42 31" fill="none" xmlns="http://www.w3.org/2000/svg">
<g clip-path="url(#clip0_14_230)">
<path d="M11.992 27.8466L1.06715 16.139C0.349383 15.3649 -0.0334201 14.338 0.00229203 13.2824C0.0380041 12.2268 0.489331 11.2281 1.25776 10.5045C2.03098 9.78495 3.05722 9.40113 4.11223 9.43689C5.16723 9.47265 6.1652 9.9251 6.88804 10.6953L15.315 19.7253L28.6552 7.24857C28.7747 7.13462 28.8999 7.03208 29.0308 6.93523L35.304 1.06715C36.0775 0.348854 37.1033 -0.0339269 38.1576 0.00236385C39.2119 0.0386546 40.2091 0.491071 40.9314 1.26086C41.6501 2.03505 42.0334 3.06258 41.9977 4.1189C41.962 5.17522 41.5101 6.17444 40.7408 6.89819L21.5825 24.8214L21.5626 24.7987L14.9337 31L11.992 27.8466Z" fill="#00BA00"/>
</g>
<defs>
<clipPath id="clip0_14_230">
<rect width="42" height="31" fill="white"/>
</clipPath>
</defs>
</svg>
